# Wavefront OBJ file made by Mineways version 4.16, http://mineways.com
# Extracted from Minecraft world GPA World
# Mon Jun 13 10:06:08 2016

# Selection location min to max: -260, 84, -516 to -254, 90, -510

# Created for Viewing - Wavefront OBJ absolute indices
# Units for the model vertex data itself: meters

# 152 vertices, 150 faces (300 triangles), 63 blocks, 0 billboards/bits
# block dimensions: X=7 by Y=7 (height) by Z=7 blocks
# File type: Export full color texture patterns
# Export separate objects: YES
#  Material per object: YES
#   G3D full material: no
# Make Z the up direction instead of Y: no
# Center model: YES
# Export lesser blocks: YES
# Fatten lesser blocks: no
# Make tree leaves solid: no
# Create block faces at the borders: YES
# Individual blocks: no
# Use biomes: no
# Rotate model 0.000000 degrees
# Scale model by making each block 100 mm high
# Data operation options:
#   Fill air bubbles: no; Seal off entrances: no; Fill in isolated tunnels in base of model: no
#   Connect parts sharing an edge: no; Connect corner tips: no; Weld all shared edges: no
#   Delete floating objects: trees and parts smaller than 16 blocks: no
#   Hollow out bottom of model, making the walls 10 mm thick: no; Superhollow: no
# Melt snow blocks: no
#   Debug: show separate parts as colors: no
#   Debug: show weld blocks in bright colors: no

# Full world path: Z:\Users\shawnlee\Desktop\GPA World
# Full terrainExt.png path: Z:\Users\shawnlee\Desktop\Mineways.app\Contents\Resources\wineprefix\drive_c\winebottler\terrainExt.png
# Full current path: Z:\Users\shawnlee\Desktop\Mineways.app\Contents\Resources\wineprefix\drive_c\winebottler

mtllib diamond.mtl

o GPA_World__-260_84_-516_to_-254_90_-510
vn -1 0 0
vn 0 -1 0
vn 0 0 -1
vn 1 0 0
vn 0 1 0
vn 0 0 1
vn -0.707107 0 -0.707107
vn -0.707107 0 0.707107
vn 0.707107 0 -0.707107
vn 0.707107 0 0.707107
vn -0.707107 -0.707107 0
vn 0 -0.707107 -0.707107
vn 0.707107 -0.707107 0
vn 0 -0.707107 0.707107
vn -0.707107 0.707107 0
vn 0 0.707107 -0.707107
vn 0.707107 0.707107 0
vn 0 0.707107 0.707107
vn -0.92388 0 -0.382683
vn -0.92388 0 0.382683
vn 0.92388 0 -0.382683
vn 0.92388 0 0.382683
vn -0.382683 0 -0.92388
vn -0.382683 0 0.92388
vn 0.382683 0 -0.92388
vn 0.382683 0 0.92388
# Sea Lantern
vt 0.705078 0.263672
vt 0.736328 0.263672
vt 0.736328 0.294922
vt 0.705078 0.294922
v -0.3 0.3 0
v -0.3 0.3 0.1
v -0.3 0.4 0.1
v -0.3 0.4 0
v -0.2 0.3 0.1
v -0.2 0.3 0
v -0.2 0.4 0
v -0.2 0.4 0.1
v -0.2 0.3 -0.1
v -0.2 0.4 -0.1
v -0.1 0.3 0
v -0.1 0.3 -0.1
v -0.1 0.4 -0.1
v -0.1 0.4 0
v -0.2 0.2 0
v -0.2 0.2 0.1
v -0.1 0.2 0.1
v -0.1 0.2 0
v -0.1 0.3 0.1
v -0.2 0.5 0.1
v -0.2 0.5 0
v -0.1 0.5 0
v -0.1 0.5 0.1
v -0.1 0.4 0.1
v -0.2 0.3 0.2
v -0.2 0.4 0.2
v -0.1 0.3 0.2
v -0.1 0.4 0.2
v -0.1 0.3 -0.2
v -0.1 0.4 -0.2
v 0 0.3 -0.1
v 0 0.3 -0.2
v 0 0.4 -0.2
v 0 0.4 -0.1
v -0.1 0.2 -0.1
v 0 0.2 0
v 0 0.2 -0.1
v -0.1 0.5 -0.1
v 0 0.5 -0.1
v 0 0.5 0
v -0.1 0.1 0
v -0.1 0.1 0.1
v 0 0.1 0.1
v 0 0.1 0
v 0 0.2 0.1
v -0.1 0.6 0.1
v -0.1 0.6 0
v 0 0.6 0
v 0 0.6 0.1
v 0 0.5 0.1
v -0.1 0.2 0.2
v 0 0.2 0.2
v 0 0.3 0.2
v -0.1 0.5 0.2
v 0 0.5 0.2
v 0 0.4 0.2
v -0.1 0.3 0.3
v -0.1 0.4 0.3
v 0 0.3 0.3
v 0 0.4 0.3
v 0 0.3 -0.3
v 0 0.4 -0.3
v 0.1 0.3 -0.2
v 0.1 0.3 -0.3
v 0.1 0.4 -0.3
v 0.1 0.4 -0.2
v 0 0.2 -0.2
v 0.1 0.2 -0.1
v 0.1 0.2 -0.2
v 0.1 0.3 -0.1
v 0 0.5 -0.2
v 0.1 0.5 -0.2
v 0.1 0.4 -0.1
v 0.1 0.5 -0.1
v 0 0.1 -0.1
v 0.1 0.1 0
v 0.1 0.1 -0.1
v 0.1 0.2 0
v 0 0.6 -0.1
v 0.1 0.6 -0.1
v 0.1 0.5 0
v 0.1 0.6 0
v 0 0 0
v 0 0 0.1
v 0.1 0 0.1
v 0.1 0 0
v 0.1 0.1 0.1
v 0 0.7 0.1
v 0 0.7 0
v 0.1 0.7 0
v 0.1 0.6 0.1
v 0.1 0.7 0.1
v 0 0.1 0.2
v 0.1 0.1 0.2
v 0.1 0.2 0.1
v 0.1 0.2 0.2
v 0 0.6 0.2
v 0.1 0.5 0.2
v 0.1 0.5 0.1
v 0.1 0.6 0.2
v 0 0.2 0.3
v 0.1 0.2 0.3
v 0.1 0.3 0.2
v 0.1 0.3 0.3
v 0 0.5 0.3
v 0.1 0.4 0.3
v 0.1 0.4 0.2
v 0.1 0.5 0.3
v 0 0.3 0.4
v 0 0.4 0.4
v 0.1 0.3 0.4
v 0.1 0.4 0.4
v 0.2 0.3 -0.1
v 0.2 0.3 -0.2
v 0.2 0.4 -0.2
v 0.2 0.4 -0.1
v 0.2 0.2 0
v 0.2 0.2 -0.1
v 0.2 0.3 0
v 0.2 0.5 -0.1
v 0.2 0.4 0
v 0.2 0.5 0
v 0.2 0.1 0.1
v 0.2 0.1 0
v 0.2 0.2 0.1
v 0.2 0.6 0
v 0.2 0.5 0.1
v 0.2 0.6 0.1
v 0.2 0.2 0.2
v 0.2 0.3 0.1
v 0.2 0.3 0.2
v 0.2 0.4 0.2
v 0.2 0.4 0.1
v 0.2 0.5 0.2
v 0.2 0.3 0.3
v 0.2 0.4 0.3
v 0.3 0.3 0
v 0.3 0.3 -0.1
v 0.3 0.4 -0.1
v 0.3 0.4 0
v 0.3 0.2 0.1
v 0.3 0.2 0
v 0.3 0.3 0.1
v 0.3 0.5 0
v 0.3 0.4 0.1
v 0.3 0.5 0.1
v 0.3 0.3 0.2
v 0.3 0.4 0.2
v 0.4 0.3 0.1
v 0.4 0.3 0
v 0.4 0.4 0
v 0.4 0.4 0.1

g Sea_Lantern
usemtl Sea_Lantern
f 1/1/1 2/2/1 3/3/1 4/4/1
f 5/2/2 2/1/2 1/4/2 6/3/2
f 6/1/3 1/2/3 4/3/3 7/4/3
f 3/1/5 8/2/5 7/3/5 4/4/5
f 2/1/6 5/2/6 8/3/6 3/4/6
f 9/1/1 6/2/1 7/3/1 10/4/1
f 11/2/2 6/1/2 9/4/2 12/3/2
f 12/1/3 9/2/3 10/3/3 13/4/3
f 7/1/5 14/2/5 13/3/5 10/4/5
f 15/1/1 16/2/1 5/3/1 6/4/1
f 17/2/2 16/1/2 15/4/2 18/3/2
f 18/1/3 15/2/3 6/3/3 11/4/3
f 16/1/6 17/2/6 19/3/6 5/4/6
f 7/1/1 8/2/1 20/3/1 21/4/1
f 14/1/3 7/2/3 21/3/3 22/4/3
f 20/1/5 23/2/5 22/3/5 21/4/5
f 8/1/6 24/2/6 23/3/6 20/4/6
f 5/1/1 25/2/1 26/3/1 8/4/1
f 27/2/2 25/1/2 5/4/2 19/3/2
f 26/1/5 28/2/5 24/3/5 8/4/5
f 25/1/6 27/2/6 28/3/6 26/4/6
f 29/1/1 12/2/1 13/3/1 30/4/1
f 31/2/2 12/1/2 29/4/2 32/3/2
f 32/1/3 29/2/3 30/3/3 33/4/3
f 13/1/5 34/2/5 33/3/5 30/4/5
f 35/1/1 18/2/1 11/3/1 12/4/1
f 36/2/2 18/1/2 35/4/2 37/3/2
f 37/1/3 35/2/3 12/3/3 31/4/3
f 13/1/1 14/2/1 22/3/1 38/4/1
f 34/1/3 13/2/3 38/3/3 39/4/3
f 22/1/5 40/2/5 39/3/5 38/4/5
f 41/1/1 42/2/1 17/3/1 18/4/1
f 43/2/2 42/1/2 41/4/2 44/3/2
f 44/1/3 41/2/3 18/3/3 36/4/3
f 42/1/6 43/2/6 45/3/6 17/4/6
f 22/1/1 23/2/1 46/3/1 47/4/1
f 40/1/3 22/2/3 47/3/3 48/4/3
f 46/1/5 49/2/5 48/3/5 47/4/5
f 23/1/6 50/2/6 49/3/6 46/4/6
f 17/1/1 51/2/1 27/3/1 19/4/1
f 52/2/2 51/1/2 17/4/2 45/3/2
f 51/1/6 52/2/6 53/3/6 27/4/6
f 24/1/1 28/2/1 54/3/1 23/4/1
f 54/1/5 55/2/5 50/3/5 23/4/5
f 28/1/6 56/2/6 55/3/6 54/4/6
f 27/1/1 57/2/1 58/3/1 28/4/1
f 59/2/2 57/1/2 27/4/2 53/3/2
f 58/1/5 60/2/5 56/3/5 28/4/5
f 57/1/6 59/2/6 60/3/6 58/4/6
f 61/1/1 32/2/1 33/3/1 62/4/1
f 63/2/2 32/1/2 61/4/2 64/3/2
f 64/1/3 61/2/3 62/3/3 65/4/3
f 63/1/4 64/2/4 65/3/4 66/4/4
f 33/1/5 66/2/5 65/3/5 62/4/5
f 67/1/1 37/2/1 31/3/1 32/4/1
f 68/2/2 37/1/2 67/4/2 69/3/2
f 69/1/3 67/2/3 32/3/3 63/4/3
f 68/1/4 69/2/4 63/3/4 70/4/4
f 33/1/1 34/2/1 39/3/1 71/4/1
f 66/1/3 33/2/3 71/3/3 72/4/3
f 73/1/4 66/2/4 72/3/4 74/4/4
f 39/1/5 74/2/5 72/3/5 71/4/5
f 75/1/1 44/2/1 36/3/1 37/4/1
f 76/2/2 44/1/2 75/4/2 77/3/2
f 77/1/3 75/2/3 37/3/3 68/4/3
f 76/1/4 77/2/4 68/3/4 78/4/4
f 39/1/1 40/2/1 48/3/1 79/4/1
f 74/1/3 39/2/3 79/3/3 80/4/3
f 81/1/4 74/2/4 80/3/4 82/4/4
f 48/1/5 82/2/5 80/3/5 79/4/5
f 83/1/1 84/2/1 43/3/1 44/4/1
f 85/2/2 84/1/2 83/4/2 86/3/2
f 86/1/3 83/2/3 44/3/3 76/4/3
f 85/1/4 86/2/4 76/3/4 87/4/4
f 84/1/6 85/2/6 87/3/6 43/4/6
f 48/1/1 49/2/1 88/3/1 89/4/1
f 82/1/3 48/2/3 89/3/3 90/4/3
f 91/1/4 82/2/4 90/3/4 92/4/4
f 88/1/5 92/2/5 90/3/5 89/4/5
f 49/1/6 91/2/6 92/3/6 88/4/6
f 43/1/1 93/2/1 52/3/1 45/4/1
f 94/2/2 93/1/2 43/4/2 87/3/2
f 94/1/4 87/2/4 95/3/4 96/4/4
f 93/1/6 94/2/6 96/3/6 52/4/6
f 50/1/1 55/2/1 97/3/1 49/4/1
f 98/1/4 99/2/4 91/3/4 100/4/4
f 97/1/5 100/2/5 91/3/5 49/4/5
f 55/1/6 98/2/6 100/3/6 97/4/6
f 52/1/1 101/2/1 59/3/1 53/4/1
f 102/2/2 101/1/2 52/4/2 96/3/2
f 102/1/4 96/2/4 103/3/4 104/4/4
f 101/1/6 102/2/6 104/3/6 59/4/6
f 56/1/1 60/2/1 105/3/1 55/4/1
f 106/1/4 107/2/4 98/3/4 108/4/4
f 105/1/5 108/2/5 98/3/5 55/4/5
f 60/1/6 106/2/6 108/3/6 105/4/6
f 59/1/1 109/2/1 110/3/1 60/4/1
f 111/2/2 109/1/2 59/4/2 104/3/2
f 111/1/4 104/2/4 106/3/4 112/4/4
f 110/1/5 112/2/5 106/3/5 60/4/5
f 109/1/6 111/2/6 112/3/6 110/4/6
f 113/2/2 70/1/2 63/4/2 114/3/2
f 114/1/3 63/2/3 66/3/3 115/4/3
f 113/1/4 114/2/4 115/3/4 116/4/4
f 73/1/5 116/2/5 115/3/5 66/4/5
f 117/2/2 78/1/2 68/4/2 118/3/2
f 118/1/3 68/2/3 70/3/3 113/4/3
f 117/1/4 118/2/4 113/3/4 119/4/4
f 116/1/3 73/2/3 74/3/3 120/4/3
f 121/1/4 116/2/4 120/3/4 122/4/4
f 81/1/5 122/2/5 120/3/5 74/4/5
f 123/2/2 87/1/2 76/4/2 124/3/2
f 124/1/3 76/2/3 78/3/3 117/4/3
f 123/1/4 124/2/4 117/3/4 125/4/4
f 87/1/6 123/2/6 125/3/6 95/4/6
f 122/1/3 81/2/3 82/3/3 126/4/3
f 127/1/4 122/2/4 126/3/4 128/4/4
f 91/1/5 128/2/5 126/3/5 82/4/5
f 99/1/6 127/2/6 128/3/6 91/4/6
f 129/2/2 96/1/2 95/4/2 125/3/2
f 129/1/4 125/2/4 130/3/4 131/4/4
f 96/1/6 129/2/6 131/3/6 103/4/6
f 132/1/4 133/2/4 127/3/4 134/4/4
f 98/1/5 134/2/5 127/3/5 99/4/5
f 107/1/6 132/2/6 134/3/6 98/4/6
f 135/2/2 104/1/2 103/4/2 131/3/2
f 135/1/4 131/2/4 132/3/4 136/4/4
f 106/1/5 136/2/5 132/3/5 107/4/5
f 104/1/6 135/2/6 136/3/6 106/4/6
f 137/2/2 119/1/2 113/4/2 138/3/2
f 138/1/3 113/2/3 116/3/3 139/4/3
f 137/1/4 138/2/4 139/3/4 140/4/4
f 121/1/5 140/2/5 139/3/5 116/4/5
f 141/2/2 125/1/2 117/4/2 142/3/2
f 142/1/3 117/2/3 119/3/3 137/4/3
f 141/1/4 142/2/4 137/3/4 143/4/4
f 125/1/6 141/2/6 143/3/6 130/4/6
f 140/1/3 121/2/3 122/3/3 144/4/3
f 145/1/4 140/2/4 144/3/4 146/4/4
f 127/1/5 146/2/5 144/3/5 122/4/5
f 133/1/6 145/2/6 146/3/6 127/4/6
f 147/2/2 131/1/2 130/4/2 143/3/2
f 147/1/4 143/2/4 145/3/4 148/4/4
f 132/1/5 148/2/5 145/3/5 133/4/5
f 131/1/6 147/2/6 148/3/6 132/4/6
f 149/2/2 143/1/2 137/4/2 150/3/2
f 150/1/3 137/2/3 140/3/3 151/4/3
f 149/1/4 150/2/4 151/3/4 152/4/4
f 145/1/5 152/2/5 151/3/5 140/4/5
f 143/1/6 149/2/6 152/3/6 145/4/6
